<?xml version="1.0" encoding="UTF-8" standalone="no"?>
<!-- Generator: Adobe Illustrator 16.0.0, SVG Export Plug-In . SVG Version: 6.00 Build 0)  -->

<svg
   xmlns:dc="http://purl.org/dc/elements/1.1/"
   xmlns:cc="http://creativecommons.org/ns#"
   xmlns:rdf="http://www.w3.org/1999/02/22-rdf-syntax-ns#"
   xmlns:svg="http://www.w3.org/2000/svg"
   xmlns="http://www.w3.org/2000/svg"
   xmlns:sodipodi="http://sodipodi.sourceforge.net/DTD/sodipodi-0.dtd"
   xmlns:inkscape="http://www.inkscape.org/namespaces/inkscape"
   version="1.1"
   id="Capa_1"
   x="0px"
   y="0px"
   width="548.165px"
   height="548.165px"
   viewBox="0 0 548.165 548.165"
   style="enable-background:new 0 0 548.165 548.165;"
   xml:space="preserve"
   inkscape:version="0.91 r13725"
   sodipodi:docname="logo.svg"><metadata
     id="metadata4262"><rdf:RDF><cc:Work
         rdf:about=""><dc:format>image/svg+xml</dc:format><dc:type
           rdf:resource="http://purl.org/dc/dcmitype/StillImage" /><dc:title></dc:title></cc:Work></rdf:RDF></metadata><defs
     id="defs4260" /><sodipodi:namedview
     pagecolor="#ffffff"
     bordercolor="#666666"
     borderopacity="1"
     objecttolerance="10"
     gridtolerance="10"
     guidetolerance="10"
     inkscape:pageopacity="0"
     inkscape:pageshadow="2"
     inkscape:window-width="1366"
     inkscape:window-height="715"
     id="namedview4258"
     showgrid="false"
     inkscape:zoom="0.9613894"
     inkscape:cx="264.58569"
     inkscape:cy="274.08249"
     inkscape:window-x="0"
     inkscape:window-y="27"
     inkscape:window-maximized="1"
     inkscape:current-layer="Capa_1" /><g
     id="g4220"
     style="fill:#000000;stroke:none;stroke-opacity:1;fill-opacity:1"
     transform="translate(-1.0401612,0)"><g
       id="g4222"
       style="fill:#000000;stroke:none;stroke-opacity:1;fill-opacity:1"><path
         d="m 526.76,131.045 c -14.277,-14.274 -31.498,-21.413 -51.675,-21.413 l -63.953,0 -14.558,-38.826 C 392.956,61.481 386.345,53.438 376.728,46.678 367.115,39.921 357.266,36.54 347.177,36.54 l -146.181,0 c -10.088,0 -19.939,3.381 -29.552,10.138 -9.613,6.76 -16.225,14.803 -19.842,24.128 l -14.56,38.826 -63.953,0 c -20.179,0 -37.401,7.139 -51.678,21.413 C 7.137,145.32 0,162.544 0,182.721 l 0,255.813 c 0,20.178 7.137,37.404 21.411,51.675 14.277,14.277 31.5,21.416 51.678,21.416 l 401.989,0 c 20.177,0 37.397,-7.139 51.675,-21.416 14.273,-14.271 21.412,-31.497 21.412,-51.675 l 0,-255.813 C 548.169,162.544 541.03,145.32 526.76,131.045 Z M 364.446,400.993 c -25.029,25.03 -55.147,37.548 -90.362,37.548 -35.215,0 -65.331,-12.518 -90.362,-37.548 -25.031,-25.026 -37.544,-55.151 -37.544,-90.358 0,-35.218 12.517,-65.333 37.544,-90.364 25.028,-25.031 55.148,-37.544 90.362,-37.544 35.214,0 65.333,12.516 90.362,37.544 25.03,25.028 37.545,55.146 37.545,90.364 0,35.207 -12.514,65.329 -37.545,90.358 z"
         id="path4224"
         style="fill:#000000;stroke:none;stroke-opacity:1;fill-opacity:1"
         inkscape:connector-curvature="0" /><path
         d="m 274.084,228.403 c -22.651,0 -42.018,8.042 -58.102,24.128 -16.084,16.084 -24.126,35.448 -24.126,58.104 0,22.647 8.042,42.014 24.126,58.098 16.084,16.081 35.45,24.123 58.102,24.123 22.648,0 42.017,-8.042 58.101,-24.123 16.084,-16.084 24.127,-35.45 24.127,-58.098 0,-22.655 -8.043,-42.019 -24.127,-58.104 -16.083,-16.085 -35.453,-24.128 -58.101,-24.128 z"
         id="path4226"
         style="fill:none;stroke:none;stroke-opacity:1;fill-opacity:1"
         inkscape:connector-curvature="0" /></g></g><g
     id="g4228" /><g
     id="g4230" /><g
     id="g4232" /><g
     id="g4234" /><g
     id="g4236" /><g
     id="g4238" /><g
     id="g4240" /><g
     id="g4242" /><g
     id="g4244" /><g
     id="g4246" /><g
     id="g4248" /><g
     id="g4250" /><g
     id="g4252" /><g
     id="g4254" /><g
     id="g4256" /><g
     id="g4400"
     transform="matrix(0.50189754,0,0,0.49241018,161.63181,202.67992)"><g
       id="g4360"><path
         id="path4362"
         d="M 409.133,109.203 C 389.525,75.611 362.928,49.014 329.335,29.407 295.736,9.801 259.058,0 219.273,0 179.492,0 142.807,9.801 109.21,29.407 75.615,49.011 49.018,75.608 29.41,109.203 9.801,142.8 0,179.489 0,219.267 c 0,39.778 9.804,76.463 29.407,110.062 19.607,33.585 46.204,60.189 79.799,79.798 33.597,19.605 70.283,29.407 110.063,29.407 39.78,0 76.47,-9.802 110.065,-29.407 33.593,-19.602 60.189,-46.206 79.795,-79.798 19.603,-33.599 29.403,-70.287 29.403,-110.062 0.001,-39.778 -9.8,-76.472 -29.399,-110.064 z m -162.436,225.43 c -1.913,-2.279 -2.574,-4.186 -1.999,-5.715 -0.191,0.954 -0.858,1.81 -1.998,2.569 -0.951,-1.14 -2.67,-2.569 -5.141,-4.28 -2.478,-1.719 -4.188,-3.143 -5.14,-4.292 -0.384,-0.568 -0.903,-1.376 -1.571,-2.423 -0.667,-1.047 -1.522,-2.426 -2.569,-4.141 -1.041,-1.711 -1.801,-3.189 -2.279,-4.429 -0.473,-1.238 -0.517,-1.95 -0.144,-2.135 -3.614,1.526 -8.85,0.479 -15.701,-3.142 -1.331,-0.76 -3.333,-2.759 -5.996,-5.996 -2.663,-3.237 -5.424,-4.661 -8.28,-4.284 -0.95,0.191 -2.236,0.523 -3.855,0.999 -1.615,0.479 -2.996,0.712 -4.139,0.712 -1.143,0 -2.666,-0.376 -4.57,-1.144 -1.52,-0.567 -3.566,-1.666 -6.136,-3.281 -2.568,-1.615 -4.331,-2.621 -5.28,-2.994 -2.474,-1.335 -3.711,-1.999 -3.711,-1.999 l -4.568,-2.279 c -1.143,-0.567 -2.334,-1.472 -3.571,-2.71 -1.237,-1.239 -2.043,-2.525 -2.424,-3.857 -0.38,-1.139 -0.856,-3.425 -1.427,-6.854 -0.571,-3.43 -1.334,-5.9 -2.284,-7.42 -1.14,-1.902 -2.758,-3.806 -4.854,-5.708 -2.091,-1.902 -3.994,-2.861 -5.708,-2.861 1.524,0 1.524,-1.276 0,-3.853 -1.524,-2.574 -2.856,-4.429 -3.999,-5.564 -0.381,-0.384 -1.524,-1.619 -3.427,-3.717 -1.903,-2.095 -3.521,-3.898 -4.853,-5.428 -1.331,-1.522 -2.478,-3.281 -3.427,-5.283 -0.95,-1.999 -1.143,-3.662 -0.571,-4.997 0.189,-0.188 0,-0.476 -0.572,-0.855 -0.571,-0.376 -1.282,-0.763 -2.141,-1.143 -0.855,-0.377 -1.665,-0.712 -2.424,-0.999 -0.765,-0.281 -1.336,-0.425 -1.715,-0.425 0.383,0.767 0.81,2.143 1.287,4.141 0.476,2.002 0.999,3.478 1.569,4.429 0.383,0.76 1.999,3.524 4.854,8.274 4.952,7.994 7.232,13.901 6.854,17.706 -1.143,0.377 -1.906,0.191 -2.286,-0.568 -0.381,-0.759 -0.669,-1.807 -0.857,-3.141 -0.19,-1.328 -0.378,-2.279 -0.572,-2.854 -0.571,-1.143 -2.046,-2.382 -4.427,-3.717 -2.378,-1.327 -3.855,-2.662 -4.425,-3.997 0.192,0 0.426,-0.089 0.714,-0.287 0.287,-0.191 0.527,-0.28 0.715,-0.28 0.193,-1.712 -0.806,-3.901 -2.996,-6.571 -2.19,-2.662 -3.09,-4.564 -2.712,-5.708 -1.524,-1.143 -2.856,-3.381 -3.999,-6.707 -1.142,-3.333 -2.095,-5.476 -2.856,-6.429 -0.76,-1.138 -1.709,-2.137 -2.853,-2.996 -1.143,-0.854 -2.568,-1.805 -4.283,-2.853 -1.713,-1.047 -2.856,-1.759 -3.427,-2.141 -0.382,-0.187 -1.141,-1.04 -2.284,-2.564 -6.28,-7.616 -8.183,-11.709 -5.708,-12.279 -2.474,0.57 -4.521,-1.284 -6.139,-5.57 -1.619,-4.281 -2.141,-7.568 -1.571,-9.851 l -0.57,-0.284 c 0.192,-0.763 0.286,-2.996 0.286,-6.711 0,-3.713 0.24,-7.092 0.715,-10.136 0.478,-3.045 1.381,-4.57 2.712,-4.57 -1.331,0.19 -2.329,-1.002 -2.996,-3.567 -0.666,-2.572 -0.713,-4.334 -0.144,-5.284 0.19,-0.572 1.049,-0.187 2.57,1.143 1.52,1.328 2.378,2.19 2.568,2.568 2.475,-1.336 3.428,-3.046 2.856,-5.142 -0.381,-0.76 -2.38,-2.758 -5.996,-5.996 -8.186,-5.327 -12.375,-7.898 -12.562,-7.71 1.138,-2.091 0.854,-3.899 -0.859,-5.424 -1.902,1.143 -2.996,1.427 -3.283,0.859 -0.284,-0.572 -0.522,-1.615 -0.715,-3.14 -0.188,-1.521 -0.666,-2.377 -1.425,-2.568 -0.953,-0.19 -2.096,-0.95 -3.427,-2.283 16.939,-27.028 39.303,-48.155 67.093,-63.385 1.141,-0.188 3.234,-0.284 6.279,-0.284 1.521,0.19 2.95,0.667 4.281,1.427 1.333,0.76 2.714,1.809 4.139,3.14 1.43,1.328 2.524,2.281 3.284,2.853 0.381,-1.143 -0.094,-2.856 -1.426,-5.14 0.378,-1.143 2.473,-2.286 6.28,-3.427 4.375,-0.571 7.233,-0.478 8.564,0.287 -1.14,-1.714 -3.042,-4.094 -5.708,-7.138 l -1.427,1.425 c -1.524,-1.331 -5.518,-0.666 -11.991,1.999 -0.378,0.188 -1.331,0.715 -2.855,1.569 -1.521,0.855 -2.762,1.475 -3.711,1.855 -1.143,0.381 -2.284,0.476 -3.427,0.286 9.135,-4.947 18.083,-8.855 26.84,-11.707 0.566,0.378 1.52,1.188 2.853,2.424 1.331,1.237 2.378,2.143 3.14,2.712 -0.571,-0.378 -0.953,-0.192 -1.143,0.571 -0.76,2.283 -0.76,4.186 0,5.708 0.95,1.336 2.236,2.093 3.855,2.286 1.619,0.188 3.568,0.094 5.852,-0.288 2.284,-0.378 3.809,-0.571 4.57,-0.571 l 2.856,0.288 c 6.089,0.571 8.47,0 7.138,-1.715 0.57,0.765 1.236,2.334 1.997,4.714 0.76,2.38 1.619,4.046 2.568,4.998 0.953,-0.765 1.143,-2.096 0.571,-3.999 -0.571,-1.903 -0.571,-3.239 0,-3.999 0.188,-0.378 0.76,-0.763 1.713,-1.143 0.953,-0.378 2.046,-0.806 3.284,-1.282 1.237,-0.478 2.046,-0.81 2.43,-0.999 1.141,-0.763 0.378,-2.096 -2.286,-3.999 -0.381,-0.191 -1.188,-0.476 -2.424,-0.857 -1.237,-0.375 -2.334,-0.761 -3.284,-1.14 -0.95,-0.378 -1.949,-0.903 -2.996,-1.569 -1.047,-0.667 -1.524,-1.427 -1.431,-2.286 0.096,-0.859 0.622,-1.951 1.571,-3.284 1.143,-0.949 3,-1.331 5.568,-1.141 2.568,0.188 4.521,0.663 5.852,1.425 5.142,2.856 5.901,5.43 2.286,7.71 1.906,0.188 4.19,0.95 6.854,2.281 2.662,1.334 3.709,2.762 3.14,4.286 1.523,-2.855 3.044,-4.286 4.569,-4.286 0.95,0.193 1.858,1.479 2.712,3.858 0.855,2.378 1.377,3.662 1.566,3.855 1.526,2.091 3.039,2.568 4.572,1.425 1.52,-1.141 3.094,-2.806 4.709,-4.996 1.615,-2.187 2.519,-3.186 2.711,-2.996 -1.903,-0.758 -2.102,-1.521 -0.568,-2.283 2.847,-1.713 5.421,-2.19 7.707,-1.425 0.567,0.378 1.334,1.237 2.278,2.565 1.708,3.431 1.424,5.046 -0.855,4.856 1.711,1.524 2.42,3.429 2.143,5.71 -0.287,2.284 -1.77,3.332 -4.432,3.14 -0.948,0 -2.334,-0.478 -4.145,-1.427 -1.807,-0.95 -3.186,-1.472 -4.141,-1.569 -0.951,-0.099 -2.286,0.426 -3.997,1.569 -0.76,0.953 -1.759,2.572 -2.998,4.854 -1.238,2.288 -2.334,3.903 -3.285,4.853 -2.853,2.855 -7.616,3.904 -14.277,3.14 0.572,0 0.522,0.571 -0.144,1.714 -0.669,1.141 -1.569,2.428 -2.712,3.854 -1.143,1.427 -1.809,2.236 -1.997,2.426 -1.714,1.903 -2.855,4.093 -3.427,6.567 0,0.381 -0.096,1.667 -0.288,3.853 -0.193,2.19 -0.571,3.858 -1.143,4.998 2.284,-0.571 4.093,0.575 5.424,3.427 1.143,2.666 1.143,4.093 0,4.285 6.283,-0.948 11.803,-0.57 16.565,1.143 6.851,2.474 10.759,4.948 11.71,7.423 1.137,-1.715 3.895,-1.812 8.275,-0.288 1.714,0.95 3.23,3.809 4.571,8.564 0.76,2.853 2.047,5.33 3.854,7.422 1.811,2.093 3.758,2.663 5.855,1.713 l 0.853,-0.571 c 0.763,-0.378 1.379,-0.713 1.854,-0.998 0.479,-0.284 0.999,-0.666 1.567,-1.143 0.575,-0.476 0.91,-0.904 0.999,-1.282 0.089,-0.38 -0.048,-0.765 -0.424,-1.143 -1.335,-1.143 -2.334,-2.712 -2.998,-4.708 -0.66,-1.999 -0.517,-3.761 0.432,-5.286 0.567,-0.76 2.091,-1.903 4.564,-3.427 2.478,-1.525 4.001,-3.046 4.568,-4.569 0.771,-2.474 -0.188,-4.521 -2.851,-6.141 -2.665,-1.615 -4,-3.09 -4,-4.425 0,-0.953 0.619,-2.093 1.854,-3.427 1.242,-1.331 1.766,-2.572 1.571,-3.711 0,-0.575 -0.336,-1.762 -1,-3.571 -0.66,-1.812 -1.047,-3.143 -1.14,-3.999 -0.096,-0.857 0.336,-1.856 1.283,-2.996 1.328,-0.763 4.47,-0.715 9.418,0.14 4.949,0.859 8.187,1.763 9.713,2.712 0.574,0.378 1.81,0.95 3.713,1.714 1.902,0.756 3.569,1.565 5,2.425 1.42,0.855 2.23,1.661 2.419,2.424 l -1.424,0 c 1.331,1.146 2.143,2.474 2.423,3.999 0.288,1.528 -0.424,2.667 -2.135,3.431 1.136,-0.193 2.665,0.094 4.568,0.855 3.046,1.141 3.142,2.19 0.287,3.14 0.568,-0.193 1.376,-0.38 2.42,-0.572 1.047,-0.19 1.852,-0.477 2.426,-0.855 0.377,-0.192 0.855,-0.522 1.424,-1 0.575,-0.476 0.999,-0.763 1.287,-0.854 0.287,-0.094 0.711,-0.193 1.286,-0.288 0.568,-0.094 1.137,0.05 1.704,0.428 0.199,0 0.623,-0.477 1.287,-1.427 0.66,-0.949 1.383,-1.902 2.139,-2.852 0.764,-0.95 1.424,-1.425 1.999,-1.425 0.564,0 1.092,0.234 1.563,0.71 0.482,0.478 0.855,0.999 1.144,1.571 0.287,0.572 0.567,1.191 0.855,1.853 0.287,0.666 0.52,1.193 0.712,1.571 0.376,0.95 1.286,1.953 2.71,2.996 1.424,1.044 2.327,2.046 2.71,2.996 0.192,0.572 0.565,2 1.14,4.287 0.568,2.284 1.335,3.853 2.283,4.708 0.951,0.859 2.378,1.571 4.28,2.141 0.381,0.193 1.243,0.096 2.57,-0.282 1.328,-0.383 2.427,-0.478 3.282,-0.288 0.862,0.188 1.286,0.948 1.286,2.284 1.14,-1.143 1.708,-1.906 1.708,-2.284 0.195,2.475 0.808,4.475 1.862,5.996 1.047,1.52 2.71,2.19 4.996,1.997 l -0.575,6.283 c -0.568,0.95 -1.995,1.662 -4.284,2.137 -2.286,0.478 -3.71,0.909 -4.285,1.287 -0.568,0.19 -1.95,1.332 -4.141,3.428 -2.19,2.096 -3.087,3.333 -2.71,3.711 -3.23,-3.617 -8.091,-4.664 -14.559,-3.14 -7.23,1.142 -12.183,2.284 -14.845,3.427 -3.043,1.525 -5.141,2.95 -6.283,4.281 -0.191,0.19 -0.517,0.859 -0.996,1.999 -0.476,1.141 -0.951,2.19 -1.424,3.14 -0.482,0.95 -0.903,1.426 -1.283,1.426 1.146,-0.185 2.427,-1.094 3.854,-2.709 1.431,-1.619 2.334,-2.519 2.711,-2.712 4.944,-3.234 9.037,-4.377 12.292,-3.403 4.186,1.143 4.853,2.667 1.995,4.57 -0.373,0.378 -1.379,0.521 -2.994,0.428 -1.615,-0.094 -2.711,-0.05 -3.285,0.144 1.718,0.378 3.141,0.903 4.291,1.565 1.136,0.666 1.424,1.571 0.852,2.712 3.043,1.714 3.617,3.617 1.715,5.713 -2.478,2.478 -5.421,3.521 -8.85,3.14 0.575,0 0.575,0.382 0,1.142 l -4.859,3.14 c -0.377,0.187 -1.615,0.662 -3.71,1.427 -2.094,0.756 -3.524,1.619 -4.284,2.568 -0.568,0.762 -0.855,1.903 -0.855,3.431 0,1.525 -0.096,2.668 -0.287,3.428 -0.188,0.765 -0.952,0.949 -2.279,0.571 -0.575,1.141 -2.334,2.046 -5.284,2.708 -2.95,0.666 -4.9,1.665 -5.852,2.996 1.136,1.525 1.047,3.046 -0.288,4.57 -2.286,1.906 -4.284,1.713 -5.995,-0.571 -0.951,0.381 -1.667,1.331 -2.143,2.856 -0.472,1.524 -1.19,2.571 -2.136,3.14 1.335,2.094 1.137,3.621 -0.567,4.568 0.185,0 0.616,0.193 1.279,0.572 0.664,0.38 1.376,0.855 2.143,1.427 0.76,0.572 1.231,0.859 1.424,0.859 -0.76,1.709 -1.811,2.565 -3.142,2.565 1.143,3.047 -0.281,6.38 -4.277,9.994 -0.768,0.76 -1.958,1.52 -3.573,2.284 -1.626,0.76 -3.097,1.377 -4.432,1.854 -1.335,0.477 -2.091,0.809 -2.282,0.999 -1.903,1.716 -3.334,3.475 -4.281,5.282 -0.948,1.811 -1.092,3.569 -0.432,5.284 0.668,1.718 2.427,2.854 5.287,3.429 l 0.277,2.282 0,5.137 0.287,2.286 c 0.195,1.331 0.339,2.522 0.432,3.572 0.093,1.048 0.093,2.375 0,3.997 -0.093,1.615 -0.523,2.522 -1.283,2.707 -0.756,0.195 -1.804,0 -3.139,-0.571 -1.529,-0.76 -3.333,-4.948 -5.431,-12.56 -0.38,-1.902 -1.526,-4.182 -3.429,-6.851 -0.951,0.951 -1.759,1.567 -2.423,1.852 -0.661,0.287 -1.144,0.339 -1.421,0.144 -0.287,-0.188 -0.811,-0.619 -1.573,-1.283 -0.76,-0.664 -1.421,-1.191 -1.995,-1.567 -0.952,-0.568 -2.615,-1.048 -5,-1.424 -2.375,-0.38 -3.858,-0.859 -4.422,-1.427 -4.573,3.432 -7.335,2.569 -8.285,-2.563 -0.378,0.948 -0.332,2.231 0.144,3.854 0.478,1.618 0.715,2.519 0.715,2.71 -1.331,2.478 -3.424,2.662 -6.28,0.568 -1.143,-1.137 -3.761,-1.28 -7.854,-0.425 -4.093,0.853 -6.805,0.996 -8.136,0.425 0.193,0 0.571,0.284 1.143,0.858 0.57,0.373 0.953,0.661 1.142,0.853 -0.192,0.764 -0.476,1.331 -0.859,1.711 -0.382,0.377 -0.763,0.521 -1.142,0.432 -0.381,-0.096 -0.809,-0.096 -1.287,0 -0.476,0.089 -0.903,0.232 -1.285,0.424 -0.761,0.568 -1.711,1.567 -2.854,2.994 -1.141,1.428 -1.997,2.331 -2.568,2.707 1.14,3.046 1.665,5.38 1.571,6.995 -0.099,1.622 -0.381,4.001 -0.859,7.139 -0.478,3.138 -0.715,5.664 -0.715,7.57 0,3.038 0.905,6.57 2.712,10.561 1.809,3.997 3.949,6.755 6.424,8.281 1.336,0.76 3.621,1.232 6.854,1.421 3.235,0.194 5.52,0 6.851,-0.568 1.143,-0.564 1.997,-1.235 2.568,-1.995 0.571,-0.76 1.049,-1.862 1.427,-3.285 0.381,-1.424 0.669,-2.423 0.859,-2.991 1.331,-3.621 3.805,-5.523 7.417,-5.715 2.293,-0.191 3.949,0.055 5.003,0.712 1.047,0.667 1.472,1.57 1.28,2.714 -0.192,1.139 -0.571,2.33 -1.137,3.568 -0.574,1.239 -1.286,2.615 -2.144,4.142 -0.851,1.529 -1.378,2.669 -1.562,3.433 -0.381,1.522 -0.719,3.661 -0.999,6.427 -0.287,2.758 -0.528,4.425 -0.719,4.999 0.384,0.186 1.809,0.281 4.281,0.281 0,-0.377 0.144,-1 0.431,-1.855 0.281,-0.855 0.425,-1.379 0.425,-1.567 0.955,1.526 2.478,2.375 4.572,2.567 2.094,0.191 3.62,-0.568 4.571,-2.283 0.384,0.572 1.526,2.002 3.43,4.288 1.902,2.279 2.949,4.182 3.142,5.708 0.191,0.767 0.567,1.999 1.136,3.717 0.575,1.711 0.767,2.902 0.575,3.572 -0.191,0.657 -1.144,0.996 -2.854,0.996 -0.76,0 -1.238,0.287 -1.424,0.855 -0.198,0.575 -0.198,1.283 0,2.139 0.192,0.855 0.432,1.667 0.712,2.427 0.284,0.756 0.664,1.571 1.137,2.427 0.485,0.849 0.719,1.375 0.719,1.566 3.422,6.276 8.09,7.991 13.989,5.141 0,5.517 -1.334,8.562 -4.004,9.13 -1.505,0.378 -3.213,-0.583 -5.116,-2.862 z m 4.264,64.501 c -0.376,-1.903 -0.568,-3.423 -0.547,-4.559 -0.199,-1.526 0.472,-3.573 1.991,-6.14 1.522,-2.566 2.282,-4.521 2.282,-5.852 -3.045,-0.76 -4.186,-3.237 -3.432,-7.423 0.383,-2.857 3.141,-6.663 8.281,-11.42 3.62,-3.237 4.757,-7.81 3.429,-13.705 -0.575,-2.475 -1.054,-6.095 -1.431,-10.853 -0.376,-4.76 -0.76,-8.09 -1.143,-9.992 0,0.568 0.903,1.092 2.717,1.567 1.808,0.472 2.902,1.095 3.282,1.848 0.38,-0.564 0.853,-1.615 1.427,-3.135 0.568,-1.526 1.144,-2.665 1.704,-3.429 0.384,-0.571 1.191,-1.283 2.431,-2.143 1.238,-0.855 2.046,-1.375 2.426,-1.567 0.373,-0.188 1.235,-0.804 2.563,-1.854 1.334,-1.047 2.43,-1.852 3.288,-2.423 0.862,-0.571 1.995,-0.999 3.426,-1.28 1.431,-0.287 2.427,0.138 2.994,1.28 0.955,1.144 0.767,2.902 -0.567,5.284 -1.335,2.382 -1.335,4.048 0,5.003 0.194,-0.575 0.38,-1.817 0.567,-3.72 0.195,-1.903 0.767,-3.33 1.715,-4.288 1.143,-1.136 2.234,-1.807 3.285,-1.992 1.047,-0.198 1.995,-0.055 2.848,0.428 0.862,0.476 1.861,1.133 2.998,1.995 1.143,0.855 2.189,1.38 3.141,1.567 2.854,0.952 6.283,3.046 10.28,6.283 -0.191,-0.194 -0.191,-0.431 0,-0.719 0.192,-0.28 0.568,-0.567 1.144,-0.855 0.568,-0.28 1.088,-0.567 1.567,-0.855 0.472,-0.284 0.992,-0.513 1.567,-0.708 l 0.855,-0.287 c 1.328,0 2.282,-0.093 2.851,-0.288 0.567,-0.188 1.386,0 2.426,0.575 1.041,0.568 1.76,0.996 2.136,1.283 0.383,0.28 1.047,0.804 1.999,1.567 0.951,0.76 1.622,1.335 1.991,1.711 0.575,0.376 1.622,1.047 3.142,1.999 1.526,0.951 2.717,1.711 3.573,2.278 0.862,0.568 1.621,1.431 2.278,2.563 0.664,1.15 0.911,2.386 0.719,3.72 1.144,0.192 3.423,0.948 6.852,2.279 0.575,0.377 1.759,0.716 3.572,0.996 1.808,0.287 2.998,0.719 3.569,1.283 -27.578,29.139 -60.988,47.126 -100.196,53.978 z"
         inkscape:connector-curvature="0" /></g><g
       id="g4364" /><g
       id="g4366" /><g
       id="g4368" /><g
       id="g4370" /><g
       id="g4372" /><g
       id="g4374" /><g
       id="g4376" /><g
       id="g4378" /><g
       id="g4380" /><g
       id="g4382" /><g
       id="g4384" /><g
       id="g4386" /><g
       id="g4388" /><g
       id="g4390" /><g
       id="g4392" /></g></svg>